<svg xmlns="http://www.w3.org/2000/svg" width="190" height="190" viewBox="0 0 190 190" role="img" aria-label="模拟支付二维码">
  <rect x="8" y="8" width="6" height="6" rx="0.8" fill="#161616"/>
  <rect x="14" y="8" width="6" height="6" rx="0.8" fill="#161616"/>
  <rect x="20" y="8" width="6" height="6" rx="0.8" fill="#161616"/>
  <rect x="26" y="8" width="6" height="6" rx="0.8" fill="#161616"/>
  <rect x="32" y="8" width="6" height="6" rx="0.8" fill="#161616"/>
  <rect x="38" y="8" width="6" height="6" rx="0.8" fill="#161616"/>
  <rect x="44" y="8" width="6" height="6" rx="0.8" fill="#161616"/>
  <rect x="62" y="8" width="6" height="6" rx="0.8" fill="#161616"/>
  <rect x="92" y="8" width="6" height="6" rx="0.8" fill="#161616"/>
  <rect x="110" y="8" width="6" height="6" rx="0.8" fill="#161616"/>
  <rect x="116" y="8" width="6" height="6" rx="0.8" fill="#161616"/>
  <rect x="122" y="8" width="6" height="6" rx="0.8" fill="#161616"/>
  <rect x="140" y="8" width="6" height="6" rx="0.8" fill="#161616"/>
  <rect x="146" y="8" width="6" height="6" rx="0.8" fill="#161616"/>
  <rect x="152" y="8" width="6" height="6" rx="0.8" fill="#161616"/>
  <rect x="158" y="8" width="6" height="6" rx="0.8" fill="#161616"/>
  <rect x="164" y="8" width="6" height="6" rx="0.8" fill="#161616"/>
  <rect x="170" y="8" width="6" height="6" rx="0.8" fill="#161616"/>
  <rect x="176" y="8" width="6" height="6" rx="0.8" fill="#161616"/>
  <rect x="8" y="14" width="6" height="6" rx="0.8" fill="#161616"/>
  <rect x="44" y="14" width="6" height="6" rx="0.8" fill="#161616"/>
  <rect x="50" y="14" width="6" height="6" rx="0.8" fill="#161616"/>
  <rect x="62" y="14" width="6" height="6" rx="0.8" fill="#161616"/>
  <rect x="74" y="14" width="6" height="6" rx="0.8" fill="#161616"/>
  <rect x="86" y="14" width="6" height="6" rx="0.8" fill="#161616"/>
  <rect x="110" y="14" width="6" height="6" rx="0.8" fill="#161616"/>
  <rect x="116" y="14" width="6" height="6" rx="0.8" fill="#161616"/>
  <rect x="140" y="14" width="6" height="6" rx="0.8" fill="#161616"/>
  <rect x="176" y="14" width="6" height="6" rx="0.8" fill="#161616"/>
  <rect x="8" y="20" width="6" height="6" rx="0.8" fill="#161616"/>
  <rect x="20" y="20" width="6" height="6" rx="0.8" fill="#161616"/>
  <rect x="26" y="20" width="6" height="6" rx="0.8" fill="#161616"/>
  <rect x="32" y="20" width="6" height="6" rx="0.8" fill="#161616"/>
  <rect x="44" y="20" width="6" height="6" rx="0.8" fill="#161616"/>
  <rect x="50" y="20" width="6" height="6" rx="0.8" fill="#161616"/>
  <rect x="74" y="20" width="6" height="6" rx="0.8" fill="#161616"/>
  <rect x="86" y="20" width="6" height="6" rx="0.8" fill="#161616"/>
  <rect x="92" y="20" width="6" height="6" rx="0.8" fill="#161616"/>
  <rect x="104" y="20" width="6" height="6" rx="0.8" fill="#161616"/>
  <rect x="110" y="20" width="6" height="6" rx="0.8" fill="#161616"/>
  <rect x="134" y="20" width="6" height="6" rx="0.8" fill="#161616"/>
  <rect x="140" y="20" width="6" height="6" rx="0.8" fill="#161616"/>
  <rect x="152" y="20" width="6" height="6" rx="0.8" fill="#161616"/>
  <rect x="158" y="20" width="6" height="6" rx="0.8" fill="#161616"/>
  <rect x="164" y="20" width="6" height="6" rx="0.8" fill="#161616"/>
  <rect x="176" y="20" width="6" height="6" rx="0.8" fill="#161616"/>
  <rect x="8" y="26" width="6" height="6" rx="0.8" fill="#161616"/>
  <rect x="20" y="26" width="6" height="6" rx="0.8" fill="#161616"/>
  <rect x="26" y="26" width="6" height="6" rx="0.8" fill="#161616"/>
  <rect x="32" y="26" width="6" height="6" rx="0.8" fill="#161616"/>
  <rect x="44" y="26" width="6" height="6" rx="0.8" fill="#161616"/>
  <rect x="140" y="26" width="6" height="6" rx="0.8" fill="#161616"/>
  <rect x="152" y="26" width="6" height="6" rx="0.8" fill="#161616"/>
  <rect x="158" y="26" width="6" height="6" rx="0.8" fill="#161616"/>
  <rect x="164" y="26" width="6" height="6" rx="0.8" fill="#161616"/>
  <rect x="176" y="26" width="6" height="6" rx="0.8" fill="#161616"/>
  <rect x="8" y="32" width="6" height="6" rx="0.8" fill="#161616"/>
  <rect x="20" y="32" width="6" height="6" rx="0.8" fill="#161616"/>
  <rect x="26" y="32" width="6" height="6" rx="0.8" fill="#161616"/>
  <rect x="32" y="32" width="6" height="6" rx="0.8" fill="#161616"/>
  <rect x="44" y="32" width="6" height="6" rx="0.8" fill="#161616"/>
  <rect x="50" y="32" width="6" height="6" rx="0.8" fill="#161616"/>
  <rect x="56" y="32" width="6" height="6" rx="0.8" fill="#161616"/>
  <rect x="68" y="32" width="6" height="6" rx="0.8" fill="#161616"/>
  <rect x="92" y="32" width="6" height="6" rx="0.8" fill="#161616"/>
  <rect x="98" y="32" width="6" height="6" rx="0.8" fill="#161616"/>
  <rect x="122" y="32" width="6" height="6" rx="0.8" fill="#161616"/>
  <rect x="140" y="32" width="6" height="6" rx="0.8" fill="#161616"/>
  <rect x="152" y="32" width="6" height="6" rx="0.8" fill="#161616"/>
  <rect x="158" y="32" width="6" height="6" rx="0.8" fill="#161616"/>
  <rect x="164" y="32" width="6" height="6" rx="0.8" fill="#161616"/>
  <rect x="176" y="32" width="6" height="6" rx="0.8" fill="#161616"/>
  <rect x="8" y="38" width="6" height="6" rx="0.8" fill="#161616"/>
  <rect x="44" y="38" width="6" height="6" rx="0.8" fill="#161616"/>
  <rect x="56" y="38" width="6" height="6" rx="0.8" fill="#161616"/>
  <rect x="68" y="38" width="6" height="6" rx="0.8" fill="#161616"/>
  <rect x="80" y="38" width="6" height="6" rx="0.8" fill="#161616"/>
  <rect x="92" y="38" width="6" height="6" rx="0.8" fill="#161616"/>
  <rect x="98" y="38" width="6" height="6" rx="0.8" fill="#161616"/>
  <rect x="110" y="38" width="6" height="6" rx="0.8" fill="#161616"/>
  <rect x="140" y="38" width="6" height="6" rx="0.8" fill="#161616"/>
  <rect x="176" y="38" width="6" height="6" rx="0.8" fill="#161616"/>
  <rect x="8" y="44" width="6" height="6" rx="0.8" fill="#161616"/>
  <rect x="14" y="44" width="6" height="6" rx="0.8" fill="#161616"/>
  <rect x="20" y="44" width="6" height="6" rx="0.8" fill="#161616"/>
  <rect x="26" y="44" width="6" height="6" rx="0.8" fill="#161616"/>
  <rect x="32" y="44" width="6" height="6" rx="0.8" fill="#161616"/>
  <rect x="38" y="44" width="6" height="6" rx="0.8" fill="#161616"/>
  <rect x="44" y="44" width="6" height="6" rx="0.8" fill="#161616"/>
  <rect x="56" y="44" width="6" height="6" rx="0.8" fill="#161616"/>
  <rect x="68" y="44" width="6" height="6" rx="0.8" fill="#161616"/>
  <rect x="80" y="44" width="6" height="6" rx="0.8" fill="#161616"/>
  <rect x="92" y="44" width="6" height="6" rx="0.8" fill="#161616"/>
  <rect x="104" y="44" width="6" height="6" rx="0.8" fill="#161616"/>
  <rect x="116" y="44" width="6" height="6" rx="0.8" fill="#161616"/>
  <rect x="128" y="44" width="6" height="6" rx="0.8" fill="#161616"/>
  <rect x="140" y="44" width="6" height="6" rx="0.8" fill="#161616"/>
  <rect x="146" y="44" width="6" height="6" rx="0.8" fill="#161616"/>
  <rect x="152" y="44" width="6" height="6" rx="0.8" fill="#161616"/>
  <rect x="158" y="44" width="6" height="6" rx="0.8" fill="#161616"/>
  <rect x="164" y="44" width="6" height="6" rx="0.8" fill="#161616"/>
  <rect x="170" y="44" width="6" height="6" rx="0.8" fill="#161616"/>
  <rect x="176" y="44" width="6" height="6" rx="0.8" fill="#161616"/>
  <rect x="20" y="50" width="6" height="6" rx="0.8" fill="#161616"/>
  <rect x="56" y="50" width="6" height="6" rx="0.8" fill="#161616"/>
  <rect x="62" y="50" width="6" height="6" rx="0.8" fill="#161616"/>
  <rect x="80" y="50" width="6" height="6" rx="0.8" fill="#161616"/>
  <rect x="92" y="50" width="6" height="6" rx="0.8" fill="#161616"/>
  <rect x="98" y="50" width="6" height="6" rx="0.8" fill="#161616"/>
  <rect x="104" y="50" width="6" height="6" rx="0.8" fill="#161616"/>
  <rect x="110" y="50" width="6" height="6" rx="0.8" fill="#161616"/>
  <rect x="134" y="50" width="6" height="6" rx="0.8" fill="#161616"/>
  <rect x="170" y="50" width="6" height="6" rx="0.8" fill="#161616"/>
  <rect x="176" y="50" width="6" height="6" rx="0.8" fill="#161616"/>
  <rect x="8" y="56" width="6" height="6" rx="0.8" fill="#161616"/>
  <rect x="44" y="56" width="6" height="6" rx="0.8" fill="#161616"/>
  <rect x="68" y="56" width="6" height="6" rx="0.8" fill="#161616"/>
  <rect x="86" y="56" width="6" height="6" rx="0.8" fill="#161616"/>
  <rect x="98" y="56" width="6" height="6" rx="0.8" fill="#161616"/>
  <rect x="104" y="56" width="6" height="6" rx="0.8" fill="#161616"/>
  <rect x="110" y="56" width="6" height="6" rx="0.8" fill="#161616"/>
  <rect x="116" y="56" width="6" height="6" rx="0.8" fill="#161616"/>
  <rect x="122" y="56" width="6" height="6" rx="0.8" fill="#161616"/>
  <rect x="158" y="56" width="6" height="6" rx="0.8" fill="#161616"/>
  <rect x="8" y="62" width="6" height="6" rx="0.8" fill="#161616"/>
  <rect x="20" y="62" width="6" height="6" rx="0.8" fill="#161616"/>
  <rect x="32" y="62" width="6" height="6" rx="0.8" fill="#161616"/>
  <rect x="56" y="62" width="6" height="6" rx="0.8" fill="#161616"/>
  <rect x="74" y="62" width="6" height="6" rx="0.8" fill="#161616"/>
  <rect x="80" y="62" width="6" height="6" rx="0.8" fill="#161616"/>
  <rect x="104" y="62" width="6" height="6" rx="0.8" fill="#161616"/>
  <rect x="116" y="62" width="6" height="6" rx="0.8" fill="#161616"/>
  <rect x="122" y="62" width="6" height="6" rx="0.8" fill="#161616"/>
  <rect x="134" y="62" width="6" height="6" rx="0.8" fill="#161616"/>
  <rect x="146" y="62" width="6" height="6" rx="0.8" fill="#161616"/>
  <rect x="170" y="62" width="6" height="6" rx="0.8" fill="#161616"/>
  <rect x="20" y="68" width="6" height="6" rx="0.8" fill="#161616"/>
  <rect x="26" y="68" width="6" height="6" rx="0.8" fill="#161616"/>
  <rect x="38" y="68" width="6" height="6" rx="0.8" fill="#161616"/>
  <rect x="44" y="68" width="6" height="6" rx="0.8" fill="#161616"/>
  <rect x="50" y="68" width="6" height="6" rx="0.8" fill="#161616"/>
  <rect x="62" y="68" width="6" height="6" rx="0.8" fill="#161616"/>
  <rect x="68" y="68" width="6" height="6" rx="0.8" fill="#161616"/>
  <rect x="74" y="68" width="6" height="6" rx="0.8" fill="#161616"/>
  <rect x="98" y="68" width="6" height="6" rx="0.8" fill="#161616"/>
  <rect x="134" y="68" width="6" height="6" rx="0.8" fill="#161616"/>
  <rect x="140" y="68" width="6" height="6" rx="0.8" fill="#161616"/>
  <rect x="152" y="68" width="6" height="6" rx="0.8" fill="#161616"/>
  <rect x="164" y="68" width="6" height="6" rx="0.8" fill="#161616"/>
  <rect x="176" y="68" width="6" height="6" rx="0.8" fill="#161616"/>
  <rect x="38" y="74" width="6" height="6" rx="0.8" fill="#161616"/>
  <rect x="56" y="74" width="6" height="6" rx="0.8" fill="#161616"/>
  <rect x="62" y="74" width="6" height="6" rx="0.8" fill="#161616"/>
  <rect x="74" y="74" width="6" height="6" rx="0.8" fill="#161616"/>
  <rect x="80" y="74" width="6" height="6" rx="0.8" fill="#161616"/>
  <rect x="86" y="74" width="6" height="6" rx="0.8" fill="#161616"/>
  <rect x="92" y="74" width="6" height="6" rx="0.8" fill="#161616"/>
  <rect x="98" y="74" width="6" height="6" rx="0.8" fill="#161616"/>
  <rect x="104" y="74" width="6" height="6" rx="0.8" fill="#161616"/>
  <rect x="110" y="74" width="6" height="6" rx="0.8" fill="#161616"/>
  <rect x="116" y="74" width="6" height="6" rx="0.8" fill="#161616"/>
  <rect x="152" y="74" width="6" height="6" rx="0.8" fill="#161616"/>
  <rect x="170" y="74" width="6" height="6" rx="0.8" fill="#161616"/>
  <rect x="176" y="74" width="6" height="6" rx="0.8" fill="#161616"/>
  <rect x="20" y="80" width="6" height="6" rx="0.8" fill="#161616"/>
  <rect x="26" y="80" width="6" height="6" rx="0.8" fill="#161616"/>
  <rect x="44" y="80" width="6" height="6" rx="0.8" fill="#161616"/>
  <rect x="56" y="80" width="6" height="6" rx="0.8" fill="#161616"/>
  <rect x="74" y="80" width="6" height="6" rx="0.8" fill="#161616"/>
  <rect x="80" y="80" width="6" height="6" rx="0.8" fill="#161616"/>
  <rect x="86" y="80" width="6" height="6" rx="0.8" fill="#161616"/>
  <rect x="92" y="80" width="6" height="6" rx="0.8" fill="#161616"/>
  <rect x="110" y="80" width="6" height="6" rx="0.8" fill="#161616"/>
  <rect x="134" y="80" width="6" height="6" rx="0.8" fill="#161616"/>
  <rect x="140" y="80" width="6" height="6" rx="0.8" fill="#161616"/>
  <rect x="158" y="80" width="6" height="6" rx="0.8" fill="#161616"/>
  <rect x="170" y="80" width="6" height="6" rx="0.8" fill="#161616"/>
  <rect x="8" y="86" width="6" height="6" rx="0.8" fill="#161616"/>
  <rect x="50" y="86" width="6" height="6" rx="0.8" fill="#161616"/>
  <rect x="56" y="86" width="6" height="6" rx="0.8" fill="#161616"/>
  <rect x="62" y="86" width="6" height="6" rx="0.8" fill="#161616"/>
  <rect x="68" y="86" width="6" height="6" rx="0.8" fill="#161616"/>
  <rect x="74" y="86" width="6" height="6" rx="0.8" fill="#161616"/>
  <rect x="86" y="86" width="6" height="6" rx="0.8" fill="#161616"/>
  <rect x="92" y="86" width="6" height="6" rx="0.8" fill="#161616"/>
  <rect x="98" y="86" width="6" height="6" rx="0.8" fill="#161616"/>
  <rect x="110" y="86" width="6" height="6" rx="0.8" fill="#161616"/>
  <rect x="116" y="86" width="6" height="6" rx="0.8" fill="#161616"/>
  <rect x="122" y="86" width="6" height="6" rx="0.8" fill="#161616"/>
  <rect x="164" y="86" width="6" height="6" rx="0.8" fill="#161616"/>
  <rect x="170" y="86" width="6" height="6" rx="0.8" fill="#161616"/>
  <rect x="176" y="86" width="6" height="6" rx="0.8" fill="#161616"/>
  <rect x="26" y="92" width="6" height="6" rx="0.8" fill="#161616"/>
  <rect x="32" y="92" width="6" height="6" rx="0.8" fill="#161616"/>
  <rect x="38" y="92" width="6" height="6" rx="0.8" fill="#161616"/>
  <rect x="44" y="92" width="6" height="6" rx="0.8" fill="#161616"/>
  <rect x="50" y="92" width="6" height="6" rx="0.8" fill="#161616"/>
  <rect x="68" y="92" width="6" height="6" rx="0.8" fill="#161616"/>
  <rect x="74" y="92" width="6" height="6" rx="0.8" fill="#161616"/>
  <rect x="80" y="92" width="6" height="6" rx="0.8" fill="#161616"/>
  <rect x="86" y="92" width="6" height="6" rx="0.8" fill="#161616"/>
  <rect x="92" y="92" width="6" height="6" rx="0.8" fill="#161616"/>
  <rect x="98" y="92" width="6" height="6" rx="0.8" fill="#161616"/>
  <rect x="104" y="92" width="6" height="6" rx="0.8" fill="#161616"/>
  <rect x="110" y="92" width="6" height="6" rx="0.8" fill="#161616"/>
  <rect x="140" y="92" width="6" height="6" rx="0.8" fill="#161616"/>
  <rect x="146" y="92" width="6" height="6" rx="0.8" fill="#161616"/>
  <rect x="152" y="92" width="6" height="6" rx="0.8" fill="#161616"/>
  <rect x="164" y="92" width="6" height="6" rx="0.8" fill="#161616"/>
  <rect x="8" y="98" width="6" height="6" rx="0.8" fill="#161616"/>
  <rect x="68" y="98" width="6" height="6" rx="0.8" fill="#161616"/>
  <rect x="74" y="98" width="6" height="6" rx="0.8" fill="#161616"/>
  <rect x="80" y="98" width="6" height="6" rx="0.8" fill="#161616"/>
  <rect x="86" y="98" width="6" height="6" rx="0.8" fill="#161616"/>
  <rect x="92" y="98" width="6" height="6" rx="0.8" fill="#161616"/>
  <rect x="98" y="98" width="6" height="6" rx="0.8" fill="#161616"/>
  <rect x="104" y="98" width="6" height="6" rx="0.8" fill="#161616"/>
  <rect x="110" y="98" width="6" height="6" rx="0.8" fill="#161616"/>
  <rect x="116" y="98" width="6" height="6" rx="0.8" fill="#161616"/>
  <rect x="122" y="98" width="6" height="6" rx="0.8" fill="#161616"/>
  <rect x="158" y="98" width="6" height="6" rx="0.8" fill="#161616"/>
  <rect x="8" y="104" width="6" height="6" rx="0.8" fill="#161616"/>
  <rect x="20" y="104" width="6" height="6" rx="0.8" fill="#161616"/>
  <rect x="26" y="104" width="6" height="6" rx="0.8" fill="#161616"/>
  <rect x="38" y="104" width="6" height="6" rx="0.8" fill="#161616"/>
  <rect x="44" y="104" width="6" height="6" rx="0.8" fill="#161616"/>
  <rect x="62" y="104" width="6" height="6" rx="0.8" fill="#161616"/>
  <rect x="68" y="104" width="6" height="6" rx="0.8" fill="#161616"/>
  <rect x="74" y="104" width="6" height="6" rx="0.8" fill="#161616"/>
  <rect x="86" y="104" width="6" height="6" rx="0.8" fill="#161616"/>
  <rect x="110" y="104" width="6" height="6" rx="0.8" fill="#161616"/>
  <rect x="122" y="104" width="6" height="6" rx="0.8" fill="#161616"/>
  <rect x="134" y="104" width="6" height="6" rx="0.8" fill="#161616"/>
  <rect x="140" y="104" width="6" height="6" rx="0.8" fill="#161616"/>
  <rect x="152" y="104" width="6" height="6" rx="0.8" fill="#161616"/>
  <rect x="176" y="104" width="6" height="6" rx="0.8" fill="#161616"/>
  <rect x="20" y="110" width="6" height="6" rx="0.8" fill="#161616"/>
  <rect x="26" y="110" width="6" height="6" rx="0.8" fill="#161616"/>
  <rect x="32" y="110" width="6" height="6" rx="0.8" fill="#161616"/>
  <rect x="38" y="110" width="6" height="6" rx="0.8" fill="#161616"/>
  <rect x="56" y="110" width="6" height="6" rx="0.8" fill="#161616"/>
  <rect x="74" y="110" width="6" height="6" rx="0.8" fill="#161616"/>
  <rect x="80" y="110" width="6" height="6" rx="0.8" fill="#161616"/>
  <rect x="86" y="110" width="6" height="6" rx="0.8" fill="#161616"/>
  <rect x="92" y="110" width="6" height="6" rx="0.8" fill="#161616"/>
  <rect x="98" y="110" width="6" height="6" rx="0.8" fill="#161616"/>
  <rect x="104" y="110" width="6" height="6" rx="0.8" fill="#161616"/>
  <rect x="110" y="110" width="6" height="6" rx="0.8" fill="#161616"/>
  <rect x="134" y="110" width="6" height="6" rx="0.8" fill="#161616"/>
  <rect x="140" y="110" width="6" height="6" rx="0.8" fill="#161616"/>
  <rect x="146" y="110" width="6" height="6" rx="0.8" fill="#161616"/>
  <rect x="152" y="110" width="6" height="6" rx="0.8" fill="#161616"/>
  <rect x="158" y="110" width="6" height="6" rx="0.8" fill="#161616"/>
  <rect x="170" y="110" width="6" height="6" rx="0.8" fill="#161616"/>
  <rect x="8" y="116" width="6" height="6" rx="0.8" fill="#161616"/>
  <rect x="32" y="116" width="6" height="6" rx="0.8" fill="#161616"/>
  <rect x="38" y="116" width="6" height="6" rx="0.8" fill="#161616"/>
  <rect x="44" y="116" width="6" height="6" rx="0.8" fill="#161616"/>
  <rect x="50" y="116" width="6" height="6" rx="0.8" fill="#161616"/>
  <rect x="62" y="116" width="6" height="6" rx="0.8" fill="#161616"/>
  <rect x="80" y="116" width="6" height="6" rx="0.8" fill="#161616"/>
  <rect x="86" y="116" width="6" height="6" rx="0.8" fill="#161616"/>
  <rect x="122" y="116" width="6" height="6" rx="0.8" fill="#161616"/>
  <rect x="146" y="116" width="6" height="6" rx="0.8" fill="#161616"/>
  <rect x="152" y="116" width="6" height="6" rx="0.8" fill="#161616"/>
  <rect x="158" y="116" width="6" height="6" rx="0.8" fill="#161616"/>
  <rect x="164" y="116" width="6" height="6" rx="0.8" fill="#161616"/>
  <rect x="176" y="116" width="6" height="6" rx="0.8" fill="#161616"/>
  <rect x="8" y="122" width="6" height="6" rx="0.8" fill="#161616"/>
  <rect x="26" y="122" width="6" height="6" rx="0.8" fill="#161616"/>
  <rect x="38" y="122" width="6" height="6" rx="0.8" fill="#161616"/>
  <rect x="62" y="122" width="6" height="6" rx="0.8" fill="#161616"/>
  <rect x="92" y="122" width="6" height="6" rx="0.8" fill="#161616"/>
  <rect x="110" y="122" width="6" height="6" rx="0.8" fill="#161616"/>
  <rect x="116" y="122" width="6" height="6" rx="0.8" fill="#161616"/>
  <rect x="122" y="122" width="6" height="6" rx="0.8" fill="#161616"/>
  <rect x="140" y="122" width="6" height="6" rx="0.8" fill="#161616"/>
  <rect x="152" y="122" width="6" height="6" rx="0.8" fill="#161616"/>
  <rect x="158" y="122" width="6" height="6" rx="0.8" fill="#161616"/>
  <rect x="176" y="122" width="6" height="6" rx="0.8" fill="#161616"/>
  <rect x="32" y="128" width="6" height="6" rx="0.8" fill="#161616"/>
  <rect x="44" y="128" width="6" height="6" rx="0.8" fill="#161616"/>
  <rect x="50" y="128" width="6" height="6" rx="0.8" fill="#161616"/>
  <rect x="62" y="128" width="6" height="6" rx="0.8" fill="#161616"/>
  <rect x="74" y="128" width="6" height="6" rx="0.8" fill="#161616"/>
  <rect x="86" y="128" width="6" height="6" rx="0.8" fill="#161616"/>
  <rect x="110" y="128" width="6" height="6" rx="0.8" fill="#161616"/>
  <rect x="116" y="128" width="6" height="6" rx="0.8" fill="#161616"/>
  <rect x="146" y="128" width="6" height="6" rx="0.8" fill="#161616"/>
  <rect x="158" y="128" width="6" height="6" rx="0.8" fill="#161616"/>
  <rect x="164" y="128" width="6" height="6" rx="0.8" fill="#161616"/>
  <rect x="176" y="128" width="6" height="6" rx="0.8" fill="#161616"/>
  <rect x="20" y="134" width="6" height="6" rx="0.8" fill="#161616"/>
  <rect x="50" y="134" width="6" height="6" rx="0.8" fill="#161616"/>
  <rect x="74" y="134" width="6" height="6" rx="0.8" fill="#161616"/>
  <rect x="86" y="134" width="6" height="6" rx="0.8" fill="#161616"/>
  <rect x="92" y="134" width="6" height="6" rx="0.8" fill="#161616"/>
  <rect x="104" y="134" width="6" height="6" rx="0.8" fill="#161616"/>
  <rect x="110" y="134" width="6" height="6" rx="0.8" fill="#161616"/>
  <rect x="134" y="134" width="6" height="6" rx="0.8" fill="#161616"/>
  <rect x="158" y="134" width="6" height="6" rx="0.8" fill="#161616"/>
  <rect x="164" y="134" width="6" height="6" rx="0.8" fill="#161616"/>
  <rect x="8" y="140" width="6" height="6" rx="0.8" fill="#161616"/>
  <rect x="14" y="140" width="6" height="6" rx="0.8" fill="#161616"/>
  <rect x="20" y="140" width="6" height="6" rx="0.8" fill="#161616"/>
  <rect x="26" y="140" width="6" height="6" rx="0.8" fill="#161616"/>
  <rect x="32" y="140" width="6" height="6" rx="0.8" fill="#161616"/>
  <rect x="38" y="140" width="6" height="6" rx="0.8" fill="#161616"/>
  <rect x="44" y="140" width="6" height="6" rx="0.8" fill="#161616"/>
  <rect x="8" y="146" width="6" height="6" rx="0.8" fill="#161616"/>
  <rect x="44" y="146" width="6" height="6" rx="0.8" fill="#161616"/>
  <rect x="50" y="146" width="6" height="6" rx="0.8" fill="#161616"/>
  <rect x="56" y="146" width="6" height="6" rx="0.8" fill="#161616"/>
  <rect x="68" y="146" width="6" height="6" rx="0.8" fill="#161616"/>
  <rect x="92" y="146" width="6" height="6" rx="0.8" fill="#161616"/>
  <rect x="98" y="146" width="6" height="6" rx="0.8" fill="#161616"/>
  <rect x="122" y="146" width="6" height="6" rx="0.8" fill="#161616"/>
  <rect x="146" y="146" width="6" height="6" rx="0.8" fill="#161616"/>
  <rect x="152" y="146" width="6" height="6" rx="0.8" fill="#161616"/>
  <rect x="164" y="146" width="6" height="6" rx="0.8" fill="#161616"/>
  <rect x="170" y="146" width="6" height="6" rx="0.8" fill="#161616"/>
  <rect x="8" y="152" width="6" height="6" rx="0.8" fill="#161616"/>
  <rect x="20" y="152" width="6" height="6" rx="0.8" fill="#161616"/>
  <rect x="26" y="152" width="6" height="6" rx="0.8" fill="#161616"/>
  <rect x="32" y="152" width="6" height="6" rx="0.8" fill="#161616"/>
  <rect x="44" y="152" width="6" height="6" rx="0.8" fill="#161616"/>
  <rect x="56" y="152" width="6" height="6" rx="0.8" fill="#161616"/>
  <rect x="68" y="152" width="6" height="6" rx="0.8" fill="#161616"/>
  <rect x="80" y="152" width="6" height="6" rx="0.8" fill="#161616"/>
  <rect x="92" y="152" width="6" height="6" rx="0.8" fill="#161616"/>
  <rect x="98" y="152" width="6" height="6" rx="0.8" fill="#161616"/>
  <rect x="110" y="152" width="6" height="6" rx="0.8" fill="#161616"/>
  <rect x="140" y="152" width="6" height="6" rx="0.8" fill="#161616"/>
  <rect x="146" y="152" width="6" height="6" rx="0.8" fill="#161616"/>
  <rect x="170" y="152" width="6" height="6" rx="0.8" fill="#161616"/>
  <rect x="8" y="158" width="6" height="6" rx="0.8" fill="#161616"/>
  <rect x="20" y="158" width="6" height="6" rx="0.8" fill="#161616"/>
  <rect x="26" y="158" width="6" height="6" rx="0.8" fill="#161616"/>
  <rect x="32" y="158" width="6" height="6" rx="0.8" fill="#161616"/>
  <rect x="44" y="158" width="6" height="6" rx="0.8" fill="#161616"/>
  <rect x="50" y="158" width="6" height="6" rx="0.8" fill="#161616"/>
  <rect x="80" y="158" width="6" height="6" rx="0.8" fill="#161616"/>
  <rect x="98" y="158" width="6" height="6" rx="0.8" fill="#161616"/>
  <rect x="104" y="158" width="6" height="6" rx="0.8" fill="#161616"/>
  <rect x="116" y="158" width="6" height="6" rx="0.8" fill="#161616"/>
  <rect x="134" y="158" width="6" height="6" rx="0.8" fill="#161616"/>
  <rect x="140" y="158" width="6" height="6" rx="0.8" fill="#161616"/>
  <rect x="146" y="158" width="6" height="6" rx="0.8" fill="#161616"/>
  <rect x="164" y="158" width="6" height="6" rx="0.8" fill="#161616"/>
  <rect x="8" y="164" width="6" height="6" rx="0.8" fill="#161616"/>
  <rect x="20" y="164" width="6" height="6" rx="0.8" fill="#161616"/>
  <rect x="26" y="164" width="6" height="6" rx="0.8" fill="#161616"/>
  <rect x="32" y="164" width="6" height="6" rx="0.8" fill="#161616"/>
  <rect x="44" y="164" width="6" height="6" rx="0.8" fill="#161616"/>
  <rect x="56" y="164" width="6" height="6" rx="0.8" fill="#161616"/>
  <rect x="62" y="164" width="6" height="6" rx="0.8" fill="#161616"/>
  <rect x="80" y="164" width="6" height="6" rx="0.8" fill="#161616"/>
  <rect x="92" y="164" width="6" height="6" rx="0.8" fill="#161616"/>
  <rect x="98" y="164" width="6" height="6" rx="0.8" fill="#161616"/>
  <rect x="104" y="164" width="6" height="6" rx="0.8" fill="#161616"/>
  <rect x="110" y="164" width="6" height="6" rx="0.8" fill="#161616"/>
  <rect x="134" y="164" width="6" height="6" rx="0.8" fill="#161616"/>
  <rect x="170" y="164" width="6" height="6" rx="0.8" fill="#161616"/>
  <rect x="176" y="164" width="6" height="6" rx="0.8" fill="#161616"/>
  <rect x="8" y="170" width="6" height="6" rx="0.8" fill="#161616"/>
  <rect x="44" y="170" width="6" height="6" rx="0.8" fill="#161616"/>
  <rect x="68" y="170" width="6" height="6" rx="0.8" fill="#161616"/>
  <rect x="86" y="170" width="6" height="6" rx="0.8" fill="#161616"/>
  <rect x="98" y="170" width="6" height="6" rx="0.8" fill="#161616"/>
  <rect x="104" y="170" width="6" height="6" rx="0.8" fill="#161616"/>
  <rect x="110" y="170" width="6" height="6" rx="0.8" fill="#161616"/>
  <rect x="116" y="170" width="6" height="6" rx="0.8" fill="#161616"/>
  <rect x="122" y="170" width="6" height="6" rx="0.8" fill="#161616"/>
  <rect x="158" y="170" width="6" height="6" rx="0.8" fill="#161616"/>
  <rect x="8" y="176" width="6" height="6" rx="0.8" fill="#161616"/>
  <rect x="14" y="176" width="6" height="6" rx="0.8" fill="#161616"/>
  <rect x="20" y="176" width="6" height="6" rx="0.8" fill="#161616"/>
  <rect x="26" y="176" width="6" height="6" rx="0.8" fill="#161616"/>
  <rect x="32" y="176" width="6" height="6" rx="0.8" fill="#161616"/>
  <rect x="38" y="176" width="6" height="6" rx="0.8" fill="#161616"/>
  <rect x="44" y="176" width="6" height="6" rx="0.8" fill="#161616"/>
  <rect x="56" y="176" width="6" height="6" rx="0.8" fill="#161616"/>
  <rect x="74" y="176" width="6" height="6" rx="0.8" fill="#161616"/>
  <rect x="80" y="176" width="6" height="6" rx="0.8" fill="#161616"/>
  <rect x="104" y="176" width="6" height="6" rx="0.8" fill="#161616"/>
  <rect x="116" y="176" width="6" height="6" rx="0.8" fill="#161616"/>
  <rect x="122" y="176" width="6" height="6" rx="0.8" fill="#161616"/>
  <rect x="134" y="176" width="6" height="6" rx="0.8" fill="#161616"/>
  <rect x="146" y="176" width="6" height="6" rx="0.8" fill="#161616"/>
  <rect x="170" y="176" width="6" height="6" rx="0.8" fill="#161616"/>
</svg>
